<svg xmlns="http://www.w3.org/2000/svg" fill="none" viewBox="0 0 600 600"><path fill="url(#devicon-d3-6-a)" d="m599 427.6.7-8c.2-3-188.9-182.5-188.9-182.5h-4.5S597.9 439.3 599 427.6"/><path fill="url(#devicon-d3-7-b)" d="m195.7 365.3-.8 1.7-.8 1.7c-6 12.6 84.4 101 91.7 90.2l1-1.4 1-1.7c5.9-8.8-89.5-96.2-92.1-90.5"/><path fill="url(#devicon-d3-8-c)" d="M323.4 489.6c-.2.6-2 3.7-3.7 5.3-.3.5 88.3 88.3 88.3 88.3h8s-83.2-89.9-92.6-93.6"/><path fill="url(#devicon-d3-9-d)" d="M599.8 418A173 173 0 0 1 427 583.3h-12.6L321.8 492a332 332 0 0 0 21-33.5H427a48.3 48.3 0 0 0 0-96.6h-49.8a333 333 0 0 0-.2-124.8h31l191.3 188.6zM50.3 15.9H0v124.8h50.3A159.6 159.6 0 0 1 195 367l91.9 90.5A283 283 0 0 0 334.5 300 284.5 284.5 0 0 0 50.3 15.8"/><path fill="url(#devicon-d3-10-e)" d="M427 15.8H223.2a335 335 0 0 1 119 124.8H427a48.3 48.3 0 0 1 0 96.6h-19l191.3 188.5q.7-7.7.7-15.5c0-42-15-80.6-40.1-110.7 25-30 40.1-68.6 40.1-110.6 0-95.4-77.6-173-173-173"/><path fill="url(#devicon-d3-11-f)" d="M414.4 583.2H224.6a336 336 0 0 0 97.2-91.2zM286.8 457.5 194.9 367a160 160 0 0 1-144.6 92.4H0v124.8h50.3c98.5 0 185.5-50.4 236.5-126.7"/><defs><linearGradient id="devicon-d3-6-a" x1="-15575.7" x2="19978.7" y1="-17483.4" y2="20941.1" gradientUnits="userSpaceOnUse"><stop stop-color="#F9A03C"/><stop offset="1" stop-color="#F7974E"/></linearGradient><linearGradient id="devicon-d3-7-b" x1="-24215.9" x2="9560.8" y1="-23224" y2="9554.2" gradientUnits="userSpaceOnUse"><stop stop-color="#F9A03C"/><stop offset="1" stop-color="#F7974E"/></linearGradient><linearGradient id="devicon-d3-8-c" x1="-21152.8" x2="8422.9" y1="-24036.9" y2="10811.6" gradientUnits="userSpaceOnUse"><stop stop-color="#F9A03C"/><stop offset="1" stop-color="#F7974E"/></linearGradient><linearGradient id="devicon-d3-9-d" x1="6801" x2="46517.8" y1="-1017.8" y2="54402.1" gradientUnits="userSpaceOnUse"><stop stop-color="#F26D58"/><stop offset="1" stop-color="#F9A03C"/></linearGradient><linearGradient id="devicon-d3-10-e" x1="6193.6" x2="47412.8" y1="1597" y2="26499.6" gradientUnits="userSpaceOnUse"><stop stop-color="#B84E51"/><stop offset="1" stop-color="#F68E48"/></linearGradient><linearGradient id="devicon-d3-11-f" x1="19471.5" x2="20029.4" y1="5463.2" y2="32406.4" gradientUnits="userSpaceOnUse"><stop stop-color="#F9A03C"/><stop offset="1" stop-color="#F7974E"/></linearGradient></defs></svg>