<svg xmlns="http://www.w3.org/2000/svg" fill="none" viewBox="0 0 600 600"><g clip-path="url(#devicon-jetbrains-icon-2-a)"><path fill="url(#devicon-jetbrains-icon-3-b)" d="M190.7 34.3 34.3 190.7A117 117 0 0 0 0 273.6V553c0 26 21 47 46.9 47h279.5c31.2 0 60.9-12.4 83-34.3l156.3-156.4a117 117 0 0 0 34.3-82.9V47c0-26-21-47-46.9-47H273.6c-31.2 0-60.9 12.4-83 34.3"/><path fill="#000" d="M450 150H75v375h375z"/><path fill="#fff" d="M281.3 440.6H121.9v37.5h159.4z"/></g><defs><linearGradient id="devicon-jetbrains-icon-3-b" x1="8" x2="587.1" y1="588" y2="17" gradientUnits="userSpaceOnUse"><stop stop-color="#FF9419"/><stop offset=".4" stop-color="#FF021D"/><stop offset="1" stop-color="#E600FF"/></linearGradient><clipPath id="devicon-jetbrains-icon-2-a"><path fill="#fff" d="M0 0h600v600H0z"/></clipPath></defs></svg>